<svg width="26" height="23" viewBox="0 0 26 23" fill="none" xmlns="http://www.w3.org/2000/svg">
<path d="M19.5861 10.9463C18.6287 10.8071 17.7304 10.4153 16.9912 9.81471C16.2519 9.2141 15.7008 8.4282 15.3992 7.54453C15.0976 6.66087 15.0573 5.71413 15.2828 4.80978C15.5084 3.90542 15.9909 3.07894 16.6766 2.4224C18.7206 0.459343 22.6533 -0.133708 24.6973 1.82935C24.8321 1.95884 24.9567 2.09776 25.0701 2.24497L19.5861 10.9463Z" fill="url(#paint0_linear)"/>
<path d="M24.0796 9.53165C23.4992 10.0903 22.7897 10.5095 22.0089 10.7553C21.2281 11.0011 20.3979 11.0665 19.5859 10.9462C19.2622 10.0286 19.1512 9.05414 19.2607 8.09102C19.3702 7.1279 19.6976 6.19941 20.2199 5.37055C20.7423 4.54168 21.4469 3.83247 22.2845 3.29256C23.1221 2.75265 24.0725 2.39509 25.0691 2.2449C26.6567 4.28736 25.9877 7.69983 24.0796 9.53165Z" fill="url(#paint1_linear)"/>
<path d="M6.36979 10.9463C7.32715 10.8071 8.22546 10.4153 8.96469 9.81471C9.70392 9.2141 10.255 8.4282 10.5567 7.54453C10.8583 6.66087 10.8986 5.71413 10.673 4.80978C10.4475 3.90542 9.965 3.07894 9.27927 2.4224C7.2353 0.459343 3.30257 -0.133708 1.25944 1.82935C1.12412 1.95862 0.999193 2.09756 0.885742 2.24497L6.36979 10.9463Z" fill="url(#paint2_linear)"/>
<path d="M1.87696 9.53163C2.45718 10.0902 3.16645 10.5095 3.94713 10.7553C4.72781 11.0011 5.55786 11.0665 6.36982 10.9462C6.61355 10.2577 6.73752 9.53535 6.73677 8.80814C6.73637 7.22394 6.14654 5.69203 5.07368 4.48871C4.00081 3.2854 2.51554 2.4899 0.885764 2.2457C-0.696774 4.28735 -0.0320402 7.69982 1.87696 9.53163Z" fill="url(#paint3_linear)"/>
<path d="M3.9299 5.01904C3.76991 4.86609 3.57765 4.74784 3.36608 4.67226C3.1545 4.59668 2.92852 4.56551 2.70335 4.58087C2.47818 4.59622 2.25905 4.65774 2.06071 4.76127C1.86238 4.8648 1.68944 5.00795 1.55356 5.18108C1.09453 5.76038 0.683569 6.37341 0.324478 7.01451C0.626738 7.95973 1.15844 8.82248 1.8758 9.53173C2.28736 9.92778 2.76493 10.255 3.28878 10.4999L4.34072 6.45711C4.40717 6.20373 4.40427 5.93815 4.33228 5.68617C4.2603 5.43419 4.12168 5.20437 3.9299 5.01904Z" fill="#FD748D"/>
<path d="M1.31694 14.939C1.25187 14.4651 1.21946 13.9877 1.21993 13.5098C1.2462 10.5314 2.49657 7.6835 4.69879 5.58629C6.90101 3.48909 9.87674 2.31238 12.978 2.31238C16.0793 2.31238 19.0551 3.48909 21.2573 5.58629C23.4595 7.6835 24.7099 10.5314 24.7362 13.5098C24.737 13.988 24.7046 14.4657 24.6391 14.9398L1.31694 14.939Z" fill="url(#paint4_linear)"/>
<path d="M24.6399 14.9396C23.8942 20.2681 18.9568 22.3405 12.9784 22.3405C7.00004 22.3405 2.06178 20.2681 1.31691 14.9388C4.35376 12.1501 7.39062 13.1329 10.5962 7.31498C10.825 6.89944 11.1685 6.55243 11.5891 6.31198C11.9034 6.1315 12.2526 6.01413 12.6155 5.96697C12.9784 5.91981 13.3475 5.94383 13.7004 6.03759C14.0534 6.13135 14.3829 6.29289 14.669 6.51245C14.9551 6.73201 15.1918 7.00503 15.3649 7.31498C18.5645 13.1329 21.6073 12.1501 24.6442 14.9396H24.6399Z" fill="url(#paint5_linear)"/>
<path d="M5.43256 13.6928C6.14071 13.6928 6.71478 13.2496 6.71478 12.7028C6.71478 12.156 6.14071 11.7128 5.43256 11.7128C4.7244 11.7128 4.15033 12.156 4.15033 12.7028C4.15033 13.2496 4.7244 13.6928 5.43256 13.6928Z" fill="#FFAECF"/>
<path d="M20.523 13.6928C21.2312 13.6928 21.8052 13.2496 21.8052 12.7028C21.8052 12.156 21.2312 11.7128 20.523 11.7128C19.8149 11.7128 19.2408 12.156 19.2408 12.7028C19.2408 13.2496 19.8149 13.6928 20.523 13.6928Z" fill="#FFAECF"/>
<path d="M7.63073 12.7028C9.03493 12.7028 10.1733 11.6095 10.1733 10.2609C10.1733 8.9123 9.03493 7.81903 7.63073 7.81903C6.22654 7.81903 5.08821 8.9123 5.08821 10.2609C5.08821 11.6095 6.22654 12.7028 7.63073 12.7028Z" fill="#F0A83E"/>
<path d="M18.3248 12.7028C19.729 12.7028 20.8673 11.6095 20.8673 10.2609C20.8673 8.9123 19.729 7.81903 18.3248 7.81903C16.9206 7.81903 15.7823 8.9123 15.7823 10.2609C15.7823 11.6095 16.9206 12.7028 18.3248 12.7028Z" fill="#F0A83E"/>
<path d="M7.63089 11.7168C8.46809 11.7168 9.14678 11.0649 9.14678 10.2609C9.14678 9.45682 8.46809 8.80499 7.63089 8.80499C6.79368 8.80499 6.11499 9.45682 6.11499 10.2609C6.11499 11.0649 6.79368 11.7168 7.63089 11.7168Z" fill="#222222"/>
<path d="M18.3249 11.7168C19.1621 11.7168 19.8408 11.0649 19.8408 10.2609C19.8408 9.45682 19.1621 8.80499 18.3249 8.80499C17.4877 8.80499 16.809 9.45682 16.809 10.2609C16.809 11.0649 17.4877 11.7168 18.3249 11.7168Z" fill="#222222"/>
<path d="M13.822 13.4814C13.5208 13.4791 13.2272 13.3908 12.9784 13.2278C12.7298 13.3912 12.436 13.4795 12.1348 13.4814C11.9152 13.4775 11.6988 13.43 11.4993 13.3417C11.2998 13.2534 11.1215 13.1264 10.9757 12.9685C10.9018 12.8878 10.8636 12.7825 10.8691 12.6751C10.8747 12.5677 10.9236 12.4667 11.0056 12.3934C11.0875 12.3201 11.1959 12.2803 11.3079 12.2826C11.4198 12.2848 11.5264 12.3289 11.6051 12.4054C11.6676 12.4831 11.7478 12.546 11.8395 12.5893C11.9313 12.6326 12.0322 12.6551 12.1344 12.6551C12.2366 12.6551 12.3375 12.6326 12.4292 12.5893C12.521 12.546 12.6012 12.4831 12.6637 12.4054C12.704 12.364 12.7527 12.3309 12.8068 12.3083C12.861 12.2857 12.9194 12.274 12.9784 12.274C13.0374 12.274 13.0958 12.2857 13.1499 12.3083C13.2041 12.3309 13.2528 12.364 13.293 12.4054C13.3555 12.4831 13.4358 12.546 13.5275 12.5893C13.6193 12.6326 13.7201 12.6551 13.8224 12.6551C13.9246 12.6551 14.0255 12.6326 14.1172 12.5893C14.209 12.546 14.2892 12.4831 14.3517 12.4054C14.4304 12.3289 14.537 12.2848 14.6489 12.2826C14.7608 12.2803 14.8693 12.3201 14.9512 12.3934C15.0331 12.4667 15.0821 12.5677 15.0876 12.6751C15.0932 12.7825 15.0549 12.8878 14.981 12.9685C14.8354 13.1263 14.6573 13.2534 14.4579 13.3417C14.2586 13.43 14.0423 13.4775 13.8228 13.4814H13.822Z" fill="#222222"/>
<defs>
<linearGradient id="paint0_linear" x1="1626.77" y1="2463.94" x2="2772.62" y2="2463.94" gradientUnits="userSpaceOnUse">
<stop stop-color="#4F4C5F"/>
<stop offset="1" stop-color="#77718A"/>
</linearGradient>
<linearGradient id="paint1_linear" x1="19.2209" y1="6.6233" x2="25.9573" y2="6.6233" gradientUnits="userSpaceOnUse">
<stop stop-color="#FD869C"/>
<stop offset="1" stop-color="#FDB0BF"/>
</linearGradient>
<linearGradient id="paint2_linear" x1="-33.1781" y1="2463.94" x2="1112.68" y2="2463.94" gradientUnits="userSpaceOnUse">
<stop stop-color="#77718A"/>
<stop offset="1" stop-color="#4F4C5F"/>
</linearGradient>
<linearGradient id="paint3_linear" x1="-0.00037258" y1="6.62329" x2="6.73689" y2="6.62329" gradientUnits="userSpaceOnUse">
<stop stop-color="#FDB0BF"/>
<stop offset="1" stop-color="#FD869C"/>
</linearGradient>
<linearGradient id="paint4_linear" x1="12.9786" y1="14.9394" x2="12.9786" y2="2.21639" gradientUnits="userSpaceOnUse">
<stop stop-color="#FDB58A"/>
<stop offset="1" stop-color="#3C2313"/>
</linearGradient>
<linearGradient id="paint5_linear" x1="12.9786" y1="22.3411" x2="12.9786" y2="5.94234" gradientUnits="userSpaceOnUse">
<stop stop-color="#FFF5E3"/>
<stop offset="1" stop-color="#F0A83E"/>
</linearGradient>
</defs>
</svg>
