<svg width="32" height="25" viewBox="0 0 32 25" fill="none" xmlns="http://www.w3.org/2000/svg">
<path d="M23.5922 1.29415C25.0676 0.34786 27.0053 0.415105 28.4588 1.39137C29.795 2.26895 30.7809 3.55689 31.2543 5.04365C31.4332 5.60869 31.4224 6.21349 31.2233 6.77227C31.0242 7.33104 30.647 7.81543 30.1451 8.15675C29.6433 8.49806 29.0423 8.67896 28.4274 8.6738C27.8125 8.66864 27.2149 8.47768 26.7193 8.128L21.8646 4.69932C21.8646 2.92504 22.6575 1.89368 23.5922 1.29658V1.29415Z" fill="url(#paint0_linear)"/>
<path d="M8.74531 1.29415C7.26991 0.34786 5.33222 0.415105 3.88044 1.39137C2.54415 2.26895 1.55832 3.55689 1.08484 5.04365C0.905943 5.60869 0.916811 6.21349 1.11591 6.77227C1.31501 7.33104 1.69222 7.81543 2.19407 8.15675C2.69591 8.49806 3.2969 8.67896 3.91181 8.6738C4.52672 8.66864 5.12432 8.47768 5.61988 8.128L10.4746 4.69932C10.4746 2.92504 9.68167 1.89368 8.747 1.29658L8.74531 1.29415Z" fill="url(#paint1_linear)"/>
<path d="M7.84513 4.33308C7.57214 4.07131 7.20215 3.92429 6.81639 3.92429C6.43064 3.92429 6.06065 4.07131 5.78766 4.33308C4.53588 5.52568 3.51576 6.92328 2.77527 8.46012C3.23967 8.64355 3.74539 8.70919 4.24383 8.65073C4.74227 8.59227 5.21668 8.41169 5.62148 8.12633L8.06783 6.03364C8.23286 5.76675 8.30056 5.45465 8.26023 5.14667C8.21989 4.83869 8.07383 4.55241 7.84513 4.33308Z" fill="#5C586F"/>
<path d="M28.2689 16.6876C27.5536 21.7107 24.1945 24.4151 16.1688 24.4151C6.99324 24.4151 3.91843 20.8827 3.91843 14.3851C3.91912 12.5363 4.37319 10.7137 5.24384 9.06492C6.11449 7.4161 7.37724 5.98739 8.92984 4.89453C10.4824 3.80166 12.2812 3.07536 14.1805 2.77445C16.0797 2.47353 18.0261 2.60647 19.8619 3.16249L28.2689 16.6876Z" fill="url(#paint2_linear)"/>
<path d="M28.4197 14.3882C28.4234 15.1581 28.373 15.9273 28.2687 16.6907C27.0991 17.0019 25.8705 17.0493 24.6787 16.8293C23.4868 16.6093 22.364 16.1278 21.3979 15.4223C20.4317 14.7169 19.6483 13.8067 19.1088 12.7626C18.5693 11.7185 18.2883 10.5688 18.2876 9.40316C18.2876 6.16245 18.6318 4.25367 19.8575 3.16479C22.3414 3.91873 24.5105 5.41321 26.0502 7.43135C27.5898 9.44949 28.4198 11.8863 28.4197 14.3882Z" fill="url(#paint3_linear)"/>
<path d="M7.89421 14.3114C8.67085 14.3114 9.30044 13.8253 9.30044 13.2257C9.30044 12.6261 8.67085 12.1401 7.89421 12.1401C7.11757 12.1401 6.48798 12.6261 6.48798 13.2257C6.48798 13.8253 7.11757 14.3114 7.89421 14.3114Z" fill="#FFAECF"/>
<path d="M24.4434 14.3114C25.2201 14.3114 25.8497 13.8253 25.8497 13.2257C25.8497 12.6261 25.2201 12.1401 24.4434 12.1401C23.6668 12.1401 23.0372 12.6261 23.0372 13.2257C23.0372 13.8253 23.6668 14.3114 24.4434 14.3114Z" fill="#FFAECF"/>
<path d="M13.0587 10.9774C13.3055 9.51729 12.2731 8.14146 10.7527 7.90444C9.23239 7.66742 7.79986 8.65897 7.55307 10.1191C7.30629 11.5793 8.33871 12.9551 9.85905 13.1921C11.3794 13.4291 12.8119 12.4376 13.0587 10.9774Z" fill="#F0A83E"/>
<path d="M22.0325 13.2256C23.5728 13.2256 24.8214 12.0264 24.8214 10.5472C24.8214 9.06789 23.5728 7.86871 22.0325 7.86871C20.4923 7.86871 19.2437 9.06789 19.2437 10.5472C19.2437 12.0264 20.4923 13.2256 22.0325 13.2256Z" fill="#F0A83E"/>
<path d="M11.9815 10.739C12.1284 9.86631 11.5108 9.04455 10.6022 8.90351C9.69355 8.76248 8.83792 9.35557 8.69107 10.2282C8.54422 11.1009 9.16176 11.9227 10.0704 12.0637C10.979 12.2047 11.8347 11.6116 11.9815 10.739Z" fill="#222222"/>
<path d="M22.0325 12.1431C22.9503 12.1431 23.6943 11.4286 23.6943 10.5471C23.6943 9.66563 22.9503 8.95105 22.0325 8.95105C21.1147 8.95105 20.3707 9.66563 20.3707 10.5471C20.3707 11.4286 21.1147 12.1431 22.0325 12.1431Z" fill="#222222"/>
<path d="M17.0941 14.0399C16.7615 14.0378 16.4376 13.9377 16.1662 13.7531C15.8947 13.9377 15.5708 14.0378 15.2382 14.0399C15.004 14.0349 14.7734 13.9835 14.5608 13.8889C14.3483 13.7942 14.1585 13.6583 14.0032 13.4897C13.9648 13.45 13.9348 13.4034 13.9151 13.3525C13.8953 13.3017 13.8862 13.2476 13.8882 13.1933C13.8903 13.1391 13.9034 13.0857 13.9269 13.0364C13.9504 12.987 13.9838 12.9426 14.0252 12.9056C14.0666 12.8686 14.1151 12.8399 14.1681 12.8209C14.221 12.802 14.2774 12.7932 14.3338 12.7952C14.3903 12.7971 14.4458 12.8097 14.4972 12.8323C14.5486 12.8549 14.5949 12.8869 14.6334 12.9267C14.7057 13.016 14.7983 13.0883 14.9042 13.1381C15.01 13.1878 15.1263 13.2137 15.2441 13.2137C15.362 13.2137 15.4783 13.1878 15.5841 13.1381C15.69 13.0883 15.7826 13.016 15.8549 12.9267C15.8951 12.8852 15.9438 12.8521 15.998 12.8295C16.0521 12.8069 16.1105 12.7953 16.1695 12.7953C16.2286 12.7953 16.287 12.8069 16.3411 12.8295C16.3952 12.8521 16.4439 12.8852 16.4842 12.9267C16.5565 13.016 16.6491 13.0883 16.755 13.1381C16.8608 13.1878 16.9771 13.2137 17.0949 13.2137C17.2128 13.2137 17.3291 13.1878 17.4349 13.1381C17.5407 13.0883 17.6334 13.016 17.7057 12.9267C17.7442 12.8869 17.7904 12.8549 17.8418 12.8323C17.8932 12.8097 17.9488 12.7971 18.0052 12.7952C18.0617 12.7932 18.118 12.802 18.171 12.8209C18.224 12.8399 18.2725 12.8686 18.3139 12.9056C18.3553 12.9426 18.3887 12.987 18.4122 13.0364C18.4356 13.0857 18.4488 13.1391 18.4508 13.1933C18.4529 13.2476 18.4438 13.3017 18.424 13.3525C18.4043 13.4034 18.3743 13.45 18.3358 13.4897C18.18 13.659 17.9892 13.7953 17.7755 13.89C17.5619 13.9847 17.3302 14.0357 17.0949 14.0399H17.0941Z" fill="#222222"/>
<path d="M17.6966 11.0528C17.6966 11.5259 17.0125 11.9084 16.1689 11.9084C15.3253 11.9084 14.6412 11.5259 14.6412 11.0528C14.6412 10.5797 15.3253 10.5246 16.1689 10.5246C17.0125 10.5246 17.6966 10.5805 17.6966 11.0528Z" fill="#222222"/>
<defs>
<linearGradient id="paint0_linear" x1="21.8665" y1="4.64482" x2="31.3839" y2="4.64482" gradientUnits="userSpaceOnUse">
<stop stop-color="#4F4C5F"/>
<stop offset="1" stop-color="#77718A"/>
</linearGradient>
<linearGradient id="paint1_linear" x1="0.956875" y1="4.64482" x2="10.4742" y2="4.64482" gradientUnits="userSpaceOnUse">
<stop stop-color="#77718A"/>
<stop offset="1" stop-color="#4F4C5F"/>
</linearGradient>
<linearGradient id="paint2_linear" x1="16.0955" y1="24.4144" x2="16.0955" y2="2.61613" gradientUnits="userSpaceOnUse">
<stop stop-color="#F0A83E"/>
<stop offset="1" stop-color="#FFF5E3"/>
</linearGradient>
<linearGradient id="paint3_linear" x1="18.2894" y1="10.06" x2="28.422" y2="10.06" gradientUnits="userSpaceOnUse">
<stop stop-color="#EFC4AB"/>
<stop offset="1" stop-color="#3C2313"/>
</linearGradient>
</defs>
</svg>
